<svg width="184" height="118" viewBox="0 0 184 118" fill="none" xmlns="http://www.w3.org/2000/svg">
<g clip-path="url(#clip0_230_8938)">
<path d="M91.797 116.906C129.24 116.906 159.594 112.54 159.594 107.155C159.594 101.769 129.24 97.4037 91.797 97.4037C54.3537 97.4037 24 101.769 24 107.155C24 112.54 54.3537 116.906 91.797 116.906Z" fill="#AEB8C2"/>
<path fill-rule="evenodd" clip-rule="evenodd" d="M146.034 78.5082L122.109 55.8433C120.961 54.7765 119.283 54.1306 117.516 54.1306H66.0756C64.3096 54.1306 62.6316 54.7765 61.4836 55.8433L37.5596 78.5082V88.8096H146.035V78.5082H146.034Z" fill="#AEB8C2"/>
<path fill-rule="evenodd" clip-rule="evenodd" d="M57.8301 24.8776H125.763C126.824 24.8776 127.841 25.202 128.592 25.7794C129.342 26.3568 129.763 27.1399 129.763 27.9565V99.8068C129.763 100.623 129.342 101.407 128.592 101.984C127.841 102.561 126.824 102.886 125.763 102.886H57.8301C56.7692 102.886 55.7518 102.561 55.0017 101.984C54.2515 101.407 53.8301 100.623 53.8301 99.8068V27.9565C53.8301 27.1399 54.2515 26.3568 55.0017 25.7794C55.7518 25.202 56.7692 24.8776 57.8301 24.8776Z" fill="#F5F5F5"/>
<path fill-rule="evenodd" clip-rule="evenodd" d="M66.6776 32.5388H116.915C117.445 32.5388 117.954 32.701 118.329 32.9897C118.704 33.2784 118.915 33.6699 118.915 34.0782V53.2886C118.915 53.6968 118.704 54.0884 118.329 54.3771C117.954 54.6658 117.445 54.828 116.915 54.828H66.6776C66.1472 54.828 65.6385 54.6658 65.2634 54.3771C64.8883 54.0884 64.6776 53.6968 64.6776 53.2886V34.0782C64.6776 33.6699 64.8883 33.2784 65.2634 32.9897C65.6385 32.701 66.1472 32.5388 66.6776 32.5388ZM66.9396 63.1851H116.653C117.253 63.1851 117.828 63.3685 118.252 63.695C118.676 64.0216 118.915 64.4644 118.915 64.9262C118.915 65.388 118.676 65.8309 118.252 66.1574C117.828 66.4839 117.253 66.6673 116.653 66.6673H66.9396C66.3397 66.6673 65.7643 66.4839 65.3401 66.1574C64.9159 65.8309 64.6776 65.388 64.6776 64.9262C64.6776 64.4644 64.9159 64.0216 65.3401 63.695C65.7643 63.3685 66.3397 63.1851 66.9396 63.1851ZM66.9396 72.2395H116.653C117.253 72.2395 117.828 72.423 118.252 72.7496C118.677 73.0762 118.915 73.5191 118.915 73.981C118.915 74.4429 118.677 74.8858 118.252 75.2124C117.828 75.539 117.253 75.7225 116.653 75.7225H66.9396C66.3395 75.7225 65.7641 75.539 65.3398 75.2124C64.9155 74.8858 64.6771 74.4429 64.6771 73.981C64.6771 73.5191 64.9155 73.0762 65.3398 72.7496C65.7641 72.423 66.3395 72.2395 66.9396 72.2395ZM145.813 105.725C145.038 108.088 142.316 109.85 139.078 109.85H44.5146C41.2766 109.85 38.5546 108.088 37.7806 105.725C37.633 105.274 37.5584 104.811 37.5586 104.347V78.509H63.8766C66.7836 78.509 69.1266 80.3933 69.1266 82.681V82.7117C69.1266 84.9986 71.4966 86.8452 74.4036 86.8452H109.189C112.096 86.8452 114.466 84.9817 114.466 82.694V82.6848C114.466 80.3971 116.809 78.5082 119.716 78.5082H146.034V104.348C146.034 104.822 145.957 105.284 145.813 105.725Z" fill="#DCE0E6"/>
<path fill-rule="evenodd" clip-rule="evenodd" d="M149.121 26.1261L142.291 28.1659C142.115 28.2184 141.924 28.2317 141.739 28.2043C141.554 28.1769 141.383 28.1099 141.246 28.011C141.108 27.9121 141.01 27.7853 140.962 27.6452C140.913 27.5051 140.918 27.3574 140.974 27.2191L142.911 22.4413C140.322 20.1752 138.802 17.4119 138.802 14.4299C138.802 6.73641 148.92 0.5 161.402 0.5C173.881 0.5 184 6.73641 184 14.4299C184 22.1234 173.882 28.3599 161.401 28.3599C156.873 28.3599 152.657 27.5393 149.121 26.1261Z" fill="#F5F5F5"/>
<path d="M170.304 16.9454C171.878 16.9454 173.153 15.9753 173.153 14.7786C173.153 13.5819 171.878 12.6118 170.304 12.6118C168.731 12.6118 167.455 13.5819 167.455 14.7786C167.455 15.9753 168.731 16.9454 170.304 16.9454Z" fill="#AEB8C2"/>
<path fill-rule="evenodd" clip-rule="evenodd" d="M155.348 16.6745H149.65L152.548 12.8828L155.348 16.6745ZM158.909 12.8828H163.894V16.6745H158.909V12.8828Z" fill="#AEB8C2"/>
</g>
<defs>
<clipPath id="clip0_230_8938">
<rect width="184" height="117" fill="white" transform="translate(0 0.5)"/>
</clipPath>
</defs>
</svg>
