<svg width="128" height="24" viewBox="0 0 128 24" fill="none" xmlns="http://www.w3.org/2000/svg">
<path fill-rule="evenodd" clip-rule="evenodd" d="M0 10C5.52285 10 10 5.52285 10 0H14C14 7.73199 7.73199 14 0 14V10Z" fill="#FFB546"/>
<path fill-rule="evenodd" clip-rule="evenodd" d="M0 14C5.52285 14 10 18.4772 10 24H14C14 16.268 7.73199 10 0 10V14Z" fill="#1677FF"/>
<circle cx="21" cy="12" r="3" fill="#E339FF"/>
<path d="M120.616 22.2412C119.136 22.2412 117.843 21.9078 116.738 21.2411C115.633 20.5743 114.775 19.6564 114.163 18.4872C113.56 17.309 113.258 15.9572 113.258 14.4319C113.258 12.8791 113.569 11.5182 114.19 10.3491C114.811 9.18 115.674 8.26663 116.779 7.609C117.885 6.95137 119.163 6.62256 120.616 6.62256C122.104 6.62256 123.401 6.95594 124.506 7.6227C125.612 8.28946 126.47 9.21196 127.082 10.3902C127.694 11.5593 128 12.9065 128 14.4319C128 15.9663 127.69 17.3227 127.068 18.5009C126.457 19.6701 125.598 20.588 124.493 21.2548C123.388 21.9124 122.095 22.2412 120.616 22.2412ZM120.616 19.1449C121.931 19.1449 122.908 18.7065 123.547 17.8296C124.187 16.9528 124.506 15.8202 124.506 14.4319C124.506 12.9979 124.182 11.8562 123.534 11.0067C122.885 10.1482 121.912 9.71888 120.616 9.71888C119.73 9.71888 118.999 9.91983 118.423 10.3217C117.857 10.7145 117.437 11.267 117.163 11.9795C116.889 12.6828 116.752 13.5002 116.752 14.4319C116.752 15.8659 117.076 17.0121 117.725 17.8707C118.382 18.7202 119.346 19.1449 120.616 19.1449Z" fill="#222222"/>
<path d="M107.223 4.78661V1.75879H110.524V4.78661H107.223ZM107.223 21.8301V7.0335H110.524V21.8301H107.223Z" fill="#222222"/>
<path d="M96.3516 21.8301L90.981 7.03345H94.2828L98.0093 17.761L101.722 7.03345H105.038L99.6671 21.8301H96.3516Z" fill="#222222"/>
<path d="M81.9546 21.8301V7.03352H84.8728V10.6368L84.5166 10.1709C84.6993 9.67773 84.9413 9.23018 85.2427 8.82829C85.5533 8.41728 85.9232 8.07933 86.3525 7.81445C86.7178 7.56784 87.1197 7.37603 87.5581 7.23903C88.0057 7.09289 88.4624 7.00612 88.9282 6.97872C89.394 6.94218 89.8461 6.96045 90.2845 7.03352V10.1161C89.8461 9.98827 89.3392 9.94717 88.7638 9.99284C88.1975 10.0385 87.686 10.1983 87.2293 10.4724C86.7726 10.719 86.3981 11.0341 86.1059 11.4177C85.8227 11.8013 85.6126 12.2397 85.4756 12.733C85.3386 13.217 85.2701 13.7422 85.2701 14.3085V21.8301H81.9546Z" fill="#222222"/>
<path d="M72.7463 22.2412C71.2483 22.2412 69.9331 21.9169 68.8005 21.2685C67.6679 20.62 66.782 19.7203 66.1426 18.5694C65.5124 17.4186 65.1973 16.0942 65.1973 14.5963C65.1973 12.9796 65.5078 11.5776 66.1289 10.3902C66.75 9.1937 67.6131 8.26663 68.7183 7.609C69.8235 6.95137 71.1022 6.62256 72.5545 6.62256C74.0889 6.62256 75.3905 6.98334 76.4591 7.7049C77.5369 8.41733 78.3361 9.42661 78.8567 10.7327C79.3773 12.0388 79.5737 13.5779 79.4458 15.3498H76.1714V14.1442C76.1623 12.5366 75.8791 11.363 75.322 10.6231C74.7648 9.88329 73.888 9.51338 72.6915 9.51338C71.3397 9.51338 70.335 9.93353 69.6773 10.7738C69.0197 11.605 68.6909 12.8243 68.6909 14.4319C68.6909 15.9298 69.0197 17.0898 69.6773 17.9118C70.335 18.7339 71.294 19.1449 72.5545 19.1449C73.3674 19.1449 74.0661 18.9668 74.6506 18.6105C75.2443 18.2452 75.701 17.72 76.0207 17.035L79.2814 18.0214C78.7151 19.3549 77.8383 20.3916 76.6509 21.1315C75.4727 21.8713 74.1711 22.2412 72.7463 22.2412ZM67.6497 15.3498V12.8563H77.8292V15.3498H67.6497Z" fill="#222222"/>
<path d="M64.1349 21.8301C63.1576 22.0128 62.1985 22.0904 61.2578 22.063C60.3261 22.0448 59.4904 21.8758 58.7506 21.5561C58.0107 21.2273 57.449 20.7112 57.0654 20.0079C56.7274 19.3686 56.5493 18.7155 56.5311 18.0488C56.5128 17.382 56.5037 16.6285 56.5037 15.7882V2.92334H59.7918V15.5964C59.7918 16.19 59.7964 16.7107 59.8055 17.1582C59.8238 17.6058 59.9197 17.9711 60.0932 18.2543C60.422 18.8023 60.9472 19.1083 61.6688 19.1722C62.3903 19.2361 63.2124 19.1996 64.1349 19.0626V21.8301ZM53.8184 9.62291V7.03351H64.1349V9.62291H53.8184Z" fill="#222222"/>
<path d="M49.0923 21.8302V14.7059C49.0923 14.2401 49.0603 13.724 48.9964 13.1578C48.9324 12.5915 48.7817 12.048 48.5443 11.5274C48.3159 10.9976 47.9688 10.5638 47.503 10.2258C47.0463 9.88789 46.4252 9.71891 45.6397 9.71891C45.2196 9.71891 44.804 9.78742 44.393 9.92442C43.982 10.0614 43.6075 10.2989 43.2695 10.6369C42.9407 10.9657 42.6759 11.4223 42.4749 12.0069C42.274 12.5823 42.1735 13.3222 42.1735 14.2264L40.2143 13.3907C40.2143 12.1302 40.4564 10.9885 40.9405 9.96552C41.4337 8.94255 42.1552 8.12965 43.1051 7.52682C44.055 6.91487 45.2242 6.60889 46.6125 6.60889C47.7085 6.60889 48.6128 6.79156 49.3252 7.15691C50.0376 7.52226 50.6039 7.98808 51.0241 8.55437C51.4442 9.12066 51.7548 9.72348 51.9557 10.3628C52.1566 11.0022 52.2845 11.6096 52.3393 12.185C52.4033 12.7513 52.4352 13.2126 52.4352 13.5688V21.8302H49.0923ZM38.8306 21.8302V7.0336H41.7762V11.6233H42.1735V21.8302H38.8306Z" fill="#222222"/>
<path d="M32 4.78661V1.75879H35.3018V4.78661H32ZM32 21.8301V7.0335H35.3018V21.8301H32Z" fill="#222222"/>
</svg>
