<svg width="64" height="64" viewBox="0 0 64 64" fill="none" xmlns="http://www.w3.org/2000/svg">
<g style="mix-blend-mode:plus-darker">
<circle cx="12.5" cy="33.5" r="12.5" fill="#1677FF"/>
</g>
<g style="mix-blend-mode:plus-darker">
<circle cx="29.5" cy="48.5" r="15.5" fill="#FFB546"/>
</g>
<circle opacity="0.6" cx="35" cy="24" r="22" fill="#EB2F96"/>
<path d="M26.5893 33.4083L26.5714 31.9458C26.4821 29.3683 27.5714 27.7231 30.0179 26.2241C32.1786 24.8896 32.9464 23.8294 32.9464 21.9648V21.9282C32.9464 19.8808 31.3571 18.3636 28.9107 18.3636C26.4464 18.3636 24.8571 19.8808 24.7143 22.2938H24.6786L21 22.3121V22.2756C21.1607 18.1442 23.9286 15 29.1071 15C33.8214 15 37 17.87 37 21.7637V21.8003C37 24.6154 35.6071 26.608 33.25 28.0521C30.9464 29.4414 30.2857 30.4103 30.2857 32.2932V33.4083H26.5893ZM28.6607 42C27.0179 42 25.8929 40.9032 25.8929 39.2762C25.8929 37.631 27.0179 36.5342 28.6607 36.5342C30.3036 36.5342 31.4107 37.631 31.4107 39.2762C31.4107 40.9032 30.3036 42 28.6607 42Z" fill="white"/>
</svg>
