<svg width="64" height="64" viewBox="0 0 64 64" fill="none" xmlns="http://www.w3.org/2000/svg">
<path d="M53.3333 7.99997V18.6666M58.6667 13.3333H48M10.6667 45.3333V50.6666M13.3333 48H8M26.4987 41.3333C26.2606 40.4104 25.7796 39.5682 25.1056 38.8943C24.4317 38.2204 23.5895 37.7394 22.6667 37.5013L6.30667 33.2826C6.02755 33.2034 5.78189 33.0353 5.60697 32.8038C5.43204 32.5723 5.3374 32.2901 5.3374 32C5.3374 31.7098 5.43204 31.4276 5.60697 31.1961C5.78189 30.9646 6.02755 30.7965 6.30667 30.7173L22.6667 26.496C23.5892 26.2581 24.4312 25.7775 25.1051 25.1041C25.779 24.4307 26.2602 23.589 26.4987 22.6666L30.7173 6.30664C30.7958 6.02642 30.9637 5.77955 31.1955 5.60369C31.4274 5.42783 31.7104 5.33264 32.0013 5.33264C32.2923 5.33264 32.5753 5.42783 32.8071 5.60369C33.039 5.77955 33.2069 6.02642 33.2853 6.30664L37.5013 22.6666C37.7394 23.5895 38.2204 24.4317 38.8944 25.1056C39.5683 25.7795 40.4105 26.2606 41.3333 26.4986L57.6933 30.7146C57.9747 30.7922 58.2228 30.96 58.3996 31.1922C58.5764 31.4244 58.6721 31.7081 58.6721 32C58.6721 32.2918 58.5764 32.5756 58.3996 32.8078C58.2228 33.0399 57.9747 33.2077 57.6933 33.2853L41.3333 37.5013C40.4105 37.7394 39.5683 38.2204 38.8944 38.8943C38.2204 39.5682 37.7394 40.4104 37.5013 41.3333L33.2827 57.6933C33.2042 57.9735 33.0363 58.2204 32.8045 58.3963C32.5727 58.5721 32.2897 58.6673 31.9987 58.6673C31.7077 58.6673 31.4247 58.5721 31.1929 58.3963C30.961 58.2204 30.7931 57.9735 30.7147 57.6933L26.4987 41.3333Z" stroke="url(#paint0_linear_225_7041)" stroke-width="4" stroke-linecap="round" stroke-linejoin="round"/>
<defs>
<linearGradient id="paint0_linear_225_7041" x1="32.0048" y1="5.33264" x2="32.0048" y2="58.6673" gradientUnits="userSpaceOnUse">
<stop stop-color="#4B4BFF"/>
<stop offset="0.475" stop-color="#EA7EFF"/>
<stop offset="1" stop-color="#FFB546"/>
</linearGradient>
</defs>
</svg>
