<svg width="16" height="16" viewBox="0 0 16 16" fill="none" xmlns="http://www.w3.org/2000/svg">
<path d="M4 2.66666C4.28695 2.66666 4.54171 2.85028 4.63246 3.1225L4.86038 3.80628L5.54415 4.0342C5.81638 4.12494 6 4.3797 6 4.66666C6 4.95361 5.81638 5.20837 5.54415 5.29911L4.86038 5.52704L4.63246 6.21081C4.54171 6.48304 4.28695 6.66666 4 6.66666C3.71305 6.66666 3.45829 6.48304 3.36754 6.21081L3.13962 5.52704L2.45585 5.29911C2.18362 5.20837 2 4.95361 2 4.66666C2 4.3797 2.18362 4.12494 2.45585 4.0342L3.13962 3.80628L3.36754 3.1225C3.45829 2.85028 3.71305 2.66666 4 2.66666Z" fill="url(#paint0_linear_671_10568)"/>
<path d="M5.33333 9.99999C5.63537 9.99999 5.89967 10.203 5.97749 10.4949L6.22621 11.4276L6.92308 11.7179C7.17151 11.8215 7.33333 12.0642 7.33333 12.3333C7.33333 12.6025 7.17151 12.8452 6.92308 12.9487L6.22621 13.2391L5.97749 14.1718C5.89967 14.4636 5.63537 14.6667 5.33333 14.6667C5.0313 14.6667 4.767 14.4636 4.68918 14.1718L4.44046 13.2391L3.74359 12.9487C3.49516 12.8452 3.33333 12.6025 3.33333 12.3333C3.33333 12.0642 3.49516 11.8215 3.74359 11.7179L4.44046 11.4276L4.68918 10.4949C4.767 10.203 5.0313 9.99999 5.33333 9.99999Z" fill="url(#paint1_linear_671_10568)"/>
<path d="M10.2991 3.1225C10.2084 2.85028 9.95362 2.66666 9.66667 2.66666C9.37971 2.66666 9.12495 2.85028 9.03421 3.1225L8.05629 6.05628L5.12251 7.0342C4.85029 7.12494 4.66667 7.3797 4.66667 7.66666C4.66667 7.95361 4.85029 8.20837 5.12251 8.29911L8.05629 9.27704L9.03421 12.2108C9.12495 12.483 9.37971 12.6667 9.66667 12.6667C9.95362 12.6667 10.2084 12.483 10.2991 12.2108L11.277 9.27704L14.2108 8.29911C14.483 8.20837 14.6667 7.95361 14.6667 7.66666C14.6667 7.3797 14.483 7.12494 14.2108 7.0342L11.277 6.05628L10.2991 3.1225Z" fill="url(#paint2_linear_671_10568)"/>
<defs>
<linearGradient id="paint0_linear_671_10568" x1="2" y1="8.66666" x2="14.6667" y2="8.66666" gradientUnits="userSpaceOnUse">
<stop stop-color="#1677FF"/>
<stop offset="0.5" stop-color="#E339FF"/>
<stop offset="1" stop-color="#FFB546"/>
</linearGradient>
<linearGradient id="paint1_linear_671_10568" x1="2" y1="8.66666" x2="14.6667" y2="8.66666" gradientUnits="userSpaceOnUse">
<stop stop-color="#1677FF"/>
<stop offset="0.5" stop-color="#E339FF"/>
<stop offset="1" stop-color="#FFB546"/>
</linearGradient>
<linearGradient id="paint2_linear_671_10568" x1="2" y1="8.66666" x2="14.6667" y2="8.66666" gradientUnits="userSpaceOnUse">
<stop stop-color="#1677FF"/>
<stop offset="0.5" stop-color="#E339FF"/>
<stop offset="1" stop-color="#FFB546"/>
</linearGradient>
</defs>
</svg>
